<?xml version="1.0" encoding="UTF-8"?>
<svg width="24px" height="24px" viewBox="0 0 24 24" version="1.1" xmlns="http://www.w3.org/2000/svg">
    <g stroke="none" stroke-width="1" fill="none" fill-rule="evenodd">
        <path d="M12,2 C13.1045695,2 14,2.8954305 14,4 L14,6 L16,6 C17.6568542,6 19,7.34314575 19,9 L19,17 C19,18.6568542 17.6568542,20 16,20 L8,20 C6.34314575,20 5,18.6568542 5,17 L5,9 C5,7.34314575 6.34314575,6 8,6 L10,6 L10,4 C10,2.8954305 10.8954305,2 12,2 Z M12,4 L12,6 L12,4 Z M8,8 C7.44771525,8 7,8.44771525 7,9 L7,17 C7,17.5522847 7.44771525,18 8,18 L16,18 C16.5522847,18 17,17.5522847 17,17 L17,9 C17,8.44771525 16.5522847,8 16,8 L8,8 Z M10,11 C10.5522847,11 11,11.4477153 11,12 C11,12.5522847 10.5522847,13 10,13 C9.44771525,13 9,12.5522847 9,12 C9,11.4477153 9.44771525,11 10,11 Z M14,11 C14.5522847,11 15,11.4477153 15,12 C15,12.5522847 14.5522847,13 14,13 C13.4477153,13 13,12.5522847 13,12 C13,11.4477153 13.4477153,11 14,11 Z" fill="#000000"></path>
    </g>
</svg> 